<mxfile host="www.draw.io" modified="2020-02-12T14:24:11.280Z" agent="Mozilla/5.0 (Macintosh; Intel Mac OS X 10_14_3) AppleWebKit/537.36 (KHTML, like Gecko) Chrome/79.0.3945.130 Safari/537.36" etag="IJmr0Bspeaj4PJfE6Rkq" version="12.6.7" type="github">
  <diagram id="CxdAZQeiMGpa4aOwBcfx" name="Page-1">
    <mxGraphModel dx="1426" dy="946" grid="1" gridSize="10" guides="1" tooltips="1" connect="1" arrows="1" fold="1" page="1" pageScale="1" pageWidth="827" pageHeight="1169" math="0" shadow="0">
      <root>
        <mxCell id="0"/>
        <mxCell id="1" parent="0"/>
        <mxCell id="lVMuLHFtO1FS0JWvPUph-8" value="LiMaoBase" style="rounded=0;whiteSpace=wrap;html=1;fillColor=#a0522d;strokeColor=#6D1F00;fontColor=#ffffff;" parent="1" vertex="1">
          <mxGeometry x="339" y="215" width="370" height="60" as="geometry"/>
        </mxCell>
        <mxCell id="lVMuLHFtO1FS0JWvPUph-9" value="LiMaoIMSDK" style="rounded=0;whiteSpace=wrap;html=1;fillColor=#647687;strokeColor=#314354;fontColor=#ffffff;" parent="1" vertex="1">
          <mxGeometry x="210" y="140" width="500" height="60" as="geometry"/>
        </mxCell>
        <mxCell id="lVMuLHFtO1FS0JWvPUph-6" value="LiMaoLogin" style="whiteSpace=wrap;html=1;aspect=fixed;fillColor=#60a917;strokeColor=#2D7600;fontColor=#ffffff;shadow=0;" parent="1" vertex="1">
          <mxGeometry x="210" y="290" width="110" height="110" as="geometry"/>
        </mxCell>
        <mxCell id="lVMuLHFtO1FS0JWvPUph-5" value="LiMaoContacts" style="whiteSpace=wrap;html=1;aspect=fixed;fillColor=#60a917;strokeColor=#2D7600;fontColor=#ffffff;shadow=0;" parent="1" vertex="1">
          <mxGeometry x="340" y="290" width="110" height="110" as="geometry"/>
        </mxCell>
        <mxCell id="lVMuLHFtO1FS0JWvPUph-11" value="..." style="whiteSpace=wrap;html=1;aspect=fixed;fillColor=#60a917;strokeColor=#2D7600;fontColor=#ffffff;shadow=0;" parent="1" vertex="1">
          <mxGeometry x="600" y="290" width="110" height="110" as="geometry"/>
        </mxCell>
        <mxCell id="lVMuLHFtO1FS0JWvPUph-13" value="LiMaoRedpacket" style="whiteSpace=wrap;html=1;aspect=fixed;fillColor=#60a917;strokeColor=#2D7600;fontColor=#ffffff;shadow=0;" parent="1" vertex="1">
          <mxGeometry x="469" y="290" width="110" height="110" as="geometry"/>
        </mxCell>
        <mxCell id="rfPXmKBsutUwfn4dncJG-2" value="LiMaoDataSource" style="rounded=0;whiteSpace=wrap;html=1;fillColor=#e1d5e7;strokeColor=#9673a6;" vertex="1" parent="1">
          <mxGeometry x="210" y="215" width="130" height="60" as="geometry"/>
        </mxCell>
      </root>
    </mxGraphModel>
  </diagram>
</mxfile>
